<?xml version="1.0" encoding="utf-8"?>
<!-- Generator: Adobe Illustrator 19.0.0, SVG Export Plug-In . SVG Version: 6.00 Build 0)  -->
<svg version="1.1" id="Layer_1" xmlns="http://www.w3.org/2000/svg" xmlns:xlink="http://www.w3.org/1999/xlink" x="0px" y="0px"
	 viewBox="222.5 408.4 145 25" style="enable-background:new 222.5 408.4 145 25;" xml:space="preserve">
<style type="text/css">
	.st0{fill:#FFFFFF;}
</style>
<g transform="translate(0.000000,76.000000) scale(0.100000,-0.100000)">
</g>
<g id="XMLID_428_">
	<path id="XMLID_450_" class="st0" d="M231.3,429.2v-6l-7-10.8h3.5l5.2,8.1l5.2-8.1h3.5l-7,10.8v6h6.8v1.1h-16.9v-1.1H231.3z"/>
	<path id="XMLID_447_" class="st0" d="M263.5,429.2v1.1h-22.7v-1.1h6.2c-1.5-0.8-2.6-1.9-3.5-3.3c-0.9-1.4-1.3-3-1.3-4.7
		c0-2.6,1-4.8,2.9-6.6c1.9-1.8,4.3-2.6,7.1-2.6c2.8,0,5.2,0.9,7.1,2.6c1.9,1.8,2.9,4,2.9,6.6c0,1.7-0.4,3.3-1.3,4.7s-2,2.5-3.5,3.3
		H263.5z M256.8,416.7c-1.3-1.3-2.9-1.9-4.8-1.9s-3.5,0.6-4.8,1.9c-1.3,1.3-1.9,2.8-1.9,4.6s0.6,3.3,1.9,4.6
		c1.3,1.3,2.9,1.9,4.8,1.9s3.5-0.6,4.8-1.9c1.3-1.3,1.9-2.8,1.9-4.6S258.1,417.9,256.8,416.7z"/>
	<path id="XMLID_443_" class="st0" d="M284,429.2v1.1h-20.5v-1.1h6.6c-1.6-0.7-2.8-1.8-3.7-3.3c-0.9-1.4-1.4-3.1-1.4-4.9
		c0-2.6,1-4.8,2.9-6.5c1.9-1.7,4.2-2.5,7-2.5c2.7,0,5,0.8,6.8,2.2l-1.7,2.3c-0.7-0.6-1.5-1-2.2-1.2c-0.7-0.2-1.6-0.3-2.6-0.3
		c-1.9,0-3.5,0.5-4.8,1.6c-1.3,1.1-1.9,2.6-1.9,4.5s0.6,3.4,1.9,4.6c1.3,1.1,2.8,1.7,4.6,1.7c1.8,0,3.3-0.4,4.5-1.1v-4.9h3.2v6.1
		c-0.7,0.7-1.5,1.3-2.4,1.7H284z"/>
	<path id="XMLID_441_" class="st0" d="M303.3,429.2l-7.8-16.8h-3.4l-7.8,16.8h-3.1v1.1h6l1.9-4.1l0-0.1c0,0,0-0.1,0-0.1l4.6-9.9
		l4.7,10.1l1.9,4.1h6v-1.1H303.3z"/>
	<path id="XMLID_438_" class="st0" d="M331.3,429.2v1.1h-10.1l-4-12.2H317l-4,12.2H303v-1.1h6.5l-6.2-16.8h3.4l4.8,12.9l4.2-12.9
		h2.9l4.2,12.9l4.8-12.9h3.4l-6.2,16.8H331.3z"/>
	<path id="XMLID_434_" class="st0" d="M353.2,429.2v1.1h-6l-1.9-4.1h-9.5l-1.9,4.1h-6v-1.1h3.1l7.8-16.8h3.4l7.8,16.8H353.2z
		 M345.2,426.2l-4.7-10.1l-4.7,10.1H345.2z"/>
	<path id="XMLID_429_" class="st0" d="M356,429.2v-6l-7-10.8h3.5l5.2,8.1l5.2-8.1h3.5l-7,10.8v6h6.8v1.1h-16.9v-1.1H356z"/>
</g>
</svg>
