<?xml version="1.0" encoding="iso-8859-1"?>
<!-- Generator: Adobe Illustrator 19.0.0, SVG Export Plug-In . SVG Version: 6.00 Build 0)  -->
<svg version="1.1" id="Capa_1" xmlns="http://www.w3.org/2000/svg" xmlns:xlink="http://www.w3.org/1999/xlink" x="0px" y="0px"
	 viewBox="0 0 512.001 512.001" style="enable-background:new 0 0 512.001 512.001;" xml:space="preserve">
<g>
	<g>
		<path d="M378.709,249.305l-0.588-10.846l-10.489-2.821c-2.821-0.759-60.455-15.817-107.1,4.428
			c-1.118-1.017-2.257-1.996-3.404-2.923c-41.942-33.986-109.603-16.313-112.464-15.544l-10.49,2.82l-0.587,10.846
			c-0.159,2.957-3.435,72.813,38.508,106.802c6.59,5.342,14.203,9.697,22.698,13.015c-0.82,11.833-0.439,19.909-0.383,20.937
			l0.588,10.845l10.489,2.821c1.698,0.457,23.26,6.099,50.337,6.098c25.375-0.001,55.595-4.958,78.824-23.782
			C382.665,333.087,378.893,252.708,378.709,249.305z M205.678,301.657c-2.786,7.572-4.903,15.182-6.507,22.496
			c-2.98-1.59-5.727-3.378-8.198-5.38c-21.742-17.617-26.401-52.418-27.307-70.453c16.697-2.666,48.411-5.152,70.24,8.972
			c-5.543,5.15-10.318,10.877-14.427,16.959l-17.594-14.253l-18.873,23.295L205.678,301.657z M315.771,348.707
			c-19.797,16.044-48.535,18.146-70.552,16.753l76.676-62.14l-18.877-23.294l-76.675,62.139
			c3.199-21.831,11.209-49.507,31.005-65.55c27.083-21.949,70.92-17.812,91.355-14.317
			C347.89,283.026,342.853,326.761,315.771,348.707z"/>
	</g>
</g>
<g>
	<g>
		<path d="M112.341,56.229v70.544H86.152V56.229H56.171v70.544H29.982V56.229H0v87.698c0,24.403,12.351,45.97,31.127,58.795v269.478
			h80.07V202.722c18.774-12.825,31.126-34.393,31.126-58.796V56.229H112.341z M81.216,442.217L81.216,442.217H61.109V214.364
			c3.287,0.467,6.64,0.724,10.054,0.724c3.413,0,6.767-0.257,10.054-0.724V442.217z M71.161,185.105
			c-18.228,0-33.718-11.909-39.123-28.352h78.247C104.88,173.197,89.389,185.105,71.161,185.105z"/>
	</g>
</g>
<g>
	<g>
		<path d="M491.702,66.699c-13.874-17.345-32.62-26.898-52.783-26.898s-38.908,9.552-52.782,26.898
			c-13.09,16.365-20.299,37.928-20.299,60.716c0,22.789,7.209,44.352,20.299,60.716c3.821,4.776,8.02,8.938,12.507,12.494v271.572
			h80.551V200.626c4.486-3.558,8.687-7.719,12.507-12.494c13.09-16.364,20.298-37.928,20.298-60.716
			C512,104.627,504.792,83.064,491.702,66.699z M428.626,442.217V214.165c3.379,0.561,6.813,0.864,10.294,0.864
			c3.481,0,6.915-0.305,10.294-0.864v228.052H428.626z M438.92,185.048c-23.764,0-43.099-25.854-43.099-57.633
			s19.334-57.633,43.099-57.633s43.099,25.854,43.099,57.633S462.685,185.048,438.92,185.048z"/>
	</g>
</g>
<g>
</g>
<g>
</g>
<g>
</g>
<g>
</g>
<g>
</g>
<g>
</g>
<g>
</g>
<g>
</g>
<g>
</g>
<g>
</g>
<g>
</g>
<g>
</g>
<g>
</g>
<g>
</g>
<g>
</g>
</svg>
